<?xml version="1.0" encoding="UTF-8" standalone="no"?>
<!-- Created with Inkscape (http://www.inkscape.org/) -->

<svg
   xmlns:dc="http://purl.org/dc/elements/1.1/"
   xmlns:cc="http://creativecommons.org/ns#"
   xmlns:rdf="http://www.w3.org/1999/02/22-rdf-syntax-ns#"
   xmlns:svg="http://www.w3.org/2000/svg"
   xmlns="http://www.w3.org/2000/svg"
   xmlns:sodipodi="http://sodipodi.sourceforge.net/DTD/sodipodi-0.dtd"
   xmlns:inkscape="http://www.inkscape.org/namespaces/inkscape"
   width="1280"
   height="510"
   viewBox="0 0 338.66666 134.9375"
   version="1.1"
   id="svg8"
   inkscape:version="0.92.3 (2405546, 2018-03-11)"
   sodipodi:docname="AOSDP - logo.svg"
   inkscape:export-filename="C:\Users\Anxhelo\Desktop\white-black-bg.png"
   inkscape:export-xdpi="96"
   inkscape:export-ydpi="96">
  <defs
     id="defs2" />
  <sodipodi:namedview
     id="base"
     pagecolor="#ffffff"
     bordercolor="#666666"
     borderopacity="1.0"
     inkscape:pageopacity="0.0"
     inkscape:pageshadow="2"
     inkscape:zoom="0.175"
     inkscape:cx="-1478.3646"
     inkscape:cy="342.15468"
     inkscape:document-units="mm"
     inkscape:current-layer="layer1"
     showgrid="false"
     inkscape:window-width="1920"
     inkscape:window-height="1027"
     inkscape:window-x="-8"
     inkscape:window-y="-8"
     inkscape:window-maximized="1"
     units="px"
     inkscape:snap-page="true" />
  <metadata
     id="metadata5">
    <rdf:RDF>
      <cc:Work
         rdf:about="">
        <dc:format>image/svg+xml</dc:format>
        <dc:type
           rdf:resource="http://purl.org/dc/dcmitype/StillImage" />
        <dc:title></dc:title>
      </cc:Work>
    </rdf:RDF>
  </metadata>
  <g
     inkscape:label="Layer 1"
     inkscape:groupmode="layer"
     id="layer1"
     transform="translate(0,-162.06248)">
    <g
       id="g940"
       transform="matrix(0.44711575,0,0,0.44711575,97.124914,-345.5311)">
      <path
         inkscape:connector-curvature="0"
         id="path886"
         d="m 442.17537,1012.7168 c -4.51432,-0.9085 -8.66241,-3.5229 -11.55286,-7.2815 -0.99316,-1.2915 -2.25241,-3.8938 -2.92073,-6.03595 l -0.69243,-2.21942 v -64.1165 c 0,-60.14807 0.0272,-64.31492 0.43962,-67.32233 2.44954,-17.86286 9.54771,-31.93281 22.39907,-44.3992 11.70967,-11.35895 25.19715,-17.87765 41.89432,-20.24816 4.43397,-0.62951 17.54429,-0.63708 21.94757,-0.0126 14.4524,2.04943 26.04272,6.90478 36.62039,15.34076 12.62747,10.07075 21.61463,23.26411 25.76302,37.82062 2.1589,7.57549 3.14664,15.9769 2.88847,24.56853 -0.36085,12.01006 -2.73748,22.03056 -7.54496,31.81165 -3.71464,7.55761 -8.19904,13.75166 -14.55898,20.10943 -13.01358,13.00916 -28.05482,20.00857 -46.64937,21.70815 -4.61338,0.42168 -11.46968,0.18283 -13.65741,-0.47575 -6.4274,-1.93491 -11.10086,-6.70698 -13.0062,-13.28062 -0.48373,-1.66893 -0.5569,-2.48846 -0.5569,-6.23694 0,-4.99243 0.37358,-6.75982 2.16021,-10.22002 1.43194,-2.77323 4.69488,-6.0377 7.46402,-7.46747 3.03528,-1.56718 5.02094,-2.03001 9.85732,-2.29759 5.22596,-0.28915 8.41724,-0.79498 11.60901,-1.84002 5.33861,-1.74802 9.61375,-4.44742 14.05093,-8.87195 5.30118,-5.28611 8.31655,-10.74504 9.88553,-17.8965 0.36604,-1.66841 0.45716,-3.13872 0.45772,-7.38508 0,-4.6522 -0.0696,-5.61582 -0.57276,-7.86325 -1.69292,-7.56121 -5.6894,-14.12228 -11.70205,-19.21135 -5.15158,-4.36029 -10.65372,-6.96283 -17.07013,-8.07427 -2.94556,-0.51022 -8.93833,-0.58055 -11.83689,-0.13893 -7.70749,1.17434 -14.09596,4.42823 -19.70349,10.03576 -5.41615,5.41614 -8.3314,10.9492 -9.92659,18.84039 -0.39163,1.93728 -0.43449,6.83301 -0.56581,64.6097 -0.13033,57.34361 -0.17602,62.62607 -0.55244,63.87353 -1.26758,4.20108 -2.87015,6.89308 -5.60284,9.41158 -2.82068,2.5998 -5.69586,4.033 -9.60014,4.7855 -2.21471,0.4269 -6.99514,0.4164 -9.16422,-0.02 z"
         style="fill:#000000;stroke-width:0.24660194" />
      <path
         inkscape:connector-curvature="0"
         id="path884"
         d="m -141.4081,975.43168 c -2.88491,-0.19109 -8.3751,-0.89011 -11.46699,-1.45995 -14.20412,-2.61798 -27.79624,-8.37838 -39.70292,-16.82627 -19.05698,-13.52113 -32.99058,-33.77211 -38.79673,-56.38689 -2.26591,-8.82563 -2.99692,-14.91108 -2.99191,-24.90679 0.004,-8.19098 0.2759,-11.48749 1.4944,-18.12524 7.44438,-40.55322 39.55782,-72.62168 80.1245,-80.01227 1.89661,-0.34551 4.83552,-0.8181 6.53091,-1.0502 2.88918,-0.3955 18.67056,-0.42648 251.61303,-0.49395 l 248.53048,-0.072 0.72242,0.7224 c 0.94757,0.94759 1.00128,2.38143 0.12725,3.39756 l -0.59515,0.69191 -246.93154,0.13482 c -229.78752,0.12547 -247.1614,0.16374 -250.24231,0.55121 -15.8098,1.9883 -29.51912,6.74791 -42.06399,14.60374 -13.00652,8.14496 -22.20217,17.52619 -30.33581,30.9481 -10.07419,16.62412 -15.37304,38.12897 -13.70215,55.60873 1.99638,20.88479 10.51315,40.61467 24.32755,56.35703 7.97928,9.09288 19.71735,17.48987 32.11512,22.97395 9.1874,4.06402 18.73345,6.64533 29.65928,8.02009 3.08432,0.3881 22.17342,0.4258 279.09474,0.5512 l 275.78396,0.13462 0.59515,0.69192 c 0.87339,1.01536 0.82027,2.45001 -0.12569,3.39598 l -0.72084,0.72084 -275.90488,-0.0444 c -151.747681,-0.0245 -276.45973,-0.0812 -277.13788,-0.12614 z"
         style="fill:#000000;stroke-width:0.24660194" />
      <path
         inkscape:connector-curvature="0"
         id="path882"
         d="m 483.11398,974.90309 c -1.02431,-1.02433 -1.04545,-2.48824 -0.0503,-3.48342 l 0.69224,-0.69224 11.82281,-0.1324 c 12.55472,-0.14059 15.17808,-0.32413 22.03844,-1.54188 21.08733,-3.74312 41.77822,-15.03514 54.87502,-29.94798 13.79378,-15.70644 22.3268,-35.47544 24.32206,-56.34854 1.67519,-17.52449 -3.61339,-38.94007 -13.75245,-55.68932 -5.85263,-9.66825 -12.62383,-17.60349 -20.22637,-23.70348 -15.22214,-12.21363 -32.23077,-19.31369 -52.12311,-21.75826 -2.90426,-0.3569 -8.25651,-0.42457 -43.58998,-0.5512 l -40.27919,-0.14434 -0.59508,-0.69191 c -0.87689,-1.01958 -0.82039,-2.44984 0.1345,-3.40474 l 0.7296,-0.72957 41.87088,0.0866 c 45.73085,0.0946 43.09579,0.0155 51.48435,1.54383 20.86639,3.80152 40.79146,14.70485 54.92229,30.05441 14.87695,16.16002 23.56067,34.96853 26.25305,56.86271 0.62555,5.08676 0.62765,17.41187 0.004,22.44078 -1.58533,12.78034 -4.85665,23.46604 -10.60166,34.63003 -9.53306,18.52516 -24.46836,33.37733 -43.20066,42.96021 -10.82526,5.53789 -21.33519,8.7444 -33.90777,10.34509 -2.6632,0.33906 -6.00466,0.44527 -16.70459,0.53096 l -13.37547,0.10713 -0.74249,-0.7425 z"
         style="fill:#000000;stroke-width:0.24660194" />
      <path
         inkscape:connector-curvature="0"
         id="path880"
         d="m -141.4081,952.50246 c -19.49279,-1.63822 -36.24613,-9.84365 -49.25573,-24.12447 -10.84728,-11.9072 -16.88657,-24.97059 -19.09594,-41.30582 -0.63752,-4.71355 -0.64004,-16.4612 -0.005,-21.20777 2.39704,-17.90399 9.48956,-32.0056 22.39297,-44.5225 11.67679,-11.32704 25.34913,-17.9453 41.77102,-20.21973 3.93923,-0.54558 14.40902,-0.76156 18.55256,-0.3827 19.01205,1.73834 34.549371,9.11142 47.660061,22.61662 8.209957,8.45702 13.742943,17.43138 17.291288,28.04602 1.536221,4.5955 2.572497,9.2965 3.459822,15.6953 0.383974,2.76897 0.600807,66.07302 0.2357,68.81229 -0.334414,2.50903 -1.296112,5.44505 -2.419858,7.38771 -1.137875,1.96709 -4.627815,5.49214 -6.573204,6.63933 -1.867701,1.10138 -4.740589,2.10653 -7.116258,2.48975 -2.73322,0.44092 -7.9329,0.19331 -10.29599,-0.4903 -5.72247,-1.65541 -10.51825,-6.13045 -12.47983,-11.64513 -1.20777,-3.39547 -1.16092,-2.0992 -1.33083,-36.81987 -0.17488,-35.73632 -0.0623,-33.13972 -1.657241,-38.21859 -2.16698,-6.90039 -7.44467,-13.80674 -14.05064,-18.38661 -3.85429,-2.67216 -8.90545,-4.69644 -13.89015,-5.56657 -2.81719,-0.49177 -8.86357,-0.55315 -11.71359,-0.11894 -7.7075,1.17435 -14.09595,4.42823 -19.70349,10.03576 -7.03347,7.03346 -10.32287,15.08193 -10.32048,25.25204 9.9e-4,4.63617 0.4646,7.62084 1.8191,11.71359 3.44959,10.4233 12.29823,19.21459 22.65633,22.50951 3.09388,0.98414 6.26764,1.49216 10.48058,1.67761 4.77094,0.20998 7.54919,0.7978 10.32979,2.1856 4.8295,2.41039 8.28873,6.5644 9.77143,11.73404 0.81132,2.82879 0.9389,7.76779 0.28243,10.93381 -1.6275,7.84904 -7.44061,13.5981 -15.26294,15.09475 -1.68562,0.32251 -8.58124,0.43331 -11.53236,0.18527 z"
         style="fill:#000000;stroke-width:0.24660194" />
      <path
         inkscape:connector-curvature="0"
         id="path878"
         transform="scale(0.26458333)"
         d="m 127.33398,3025.9551 c -16.56278,0.01 -33.138405,0.6111 -41.517574,1.8008 -63.107415,8.9594 -114.084773,33.5978 -158.341797,76.5293 -48.768839,47.3079 -75.575069,100.6048 -84.634769,168.2734 -2.40125,17.9398 -2.39192,62.3393 0.0176,80.1543 8.35042,61.7394 31.17624,111.1136 72.17383,156.1172 49.141872,53.9437 112.531035,84.9911 186.16211,91.1797 h 0.002 c 11.13032,0.9351 47.9046,0.4687 59.42578,-0.7539 68.13661,-7.2312 123.18913,-33.432 171.30079,-81.5274 24.03756,-24.0294 40.98581,-47.4416 55.02539,-76.0058 18.17,-36.9679 27.15178,-74.8401 28.51562,-120.2325 0.97576,-32.4723 -2.75636,-64.2256 -10.91601,-92.8574 -15.67892,-55.0167 -49.64717,-104.8807 -97.37305,-142.9433 -39.97859,-31.8841 -83.783,-50.2346 -138.40625,-57.9805 -8.32115,-1.1801 -24.87081,-1.7635 -41.4336,-1.7539 z m 1.75586,152.2226 c 8.42347,0.099 16.86913,0.6472 22.43555,1.6114 24.251,4.2006 45.04506,14.0377 64.51563,30.5175 22.72496,19.2344 37.83007,44.0316 44.22851,72.6094 1.90173,8.4943 2.16602,12.1376 2.16602,29.7207 -0.002,16.0493 -0.34705,21.6063 -1.73047,27.9121 -5.93001,27.0291 -17.32734,47.6597 -37.36328,67.6387 -21.2545,21.194 -44.6439,33.6683 -71.35157,38.0508 -49.02477,8.0444 -93.722164,-7.6262 -125.527339,-44.0059 -22.5417301,-25.7838 -33.1428953,-54.4358 -33.1523441,-89.5957 -0.00895,-38.4382 12.4227148,-68.8582 39.0058591,-95.4414 21.193815,-21.1938 45.340017,-33.4912 74.470704,-37.9297 5.47759,-0.8345 13.87927,-1.1867 22.30273,-1.0879 z"
         style="fill:#000000;stroke-width:0.93203884" />
      <path
         inkscape:connector-curvature="0"
         id="path874"
         d="m 327.87537,952.00322 c -15.54332,-1.40171 -28.65344,-6.57786 -40.44602,-15.96896 -5.08449,-4.04908 -11.82007,-11.30001 -15.79076,-16.99896 -7.04645,-10.11344 -11.37821,-22.64543 -12.45966,-36.04639 -0.36852,-4.56638 -0.17459,-13.43495 0.38522,-17.61771 2.1442,-16.02114 8.26937,-29.21915 19.0555,-41.05923 10.53032,-11.55929 23.8934,-19.35679 38.65184,-22.55377 6.6877,-1.44871 17.21444,-2.18425 21.50305,-1.50249 8.08837,1.28578 14.22654,7.15972 15.89613,15.21181 0.65648,3.16602 0.52889,8.10502 -0.28243,10.93381 -1.4827,5.16964 -4.94193,9.32365 -9.77143,11.73404 -2.78059,1.3878 -5.55885,1.97562 -10.32979,2.18561 -4.21294,0.18544 -7.38669,0.69347 -10.48058,1.6776 -10.35809,3.29493 -19.20674,12.08621 -22.65633,22.50951 -1.35449,4.09275 -1.818,7.07742 -1.81911,11.71359 -0.002,10.17011 3.28703,18.21858 10.32049,25.25204 5.60753,5.60753 11.996,8.86142 19.70349,10.03576 2.89856,0.44161 8.89134,0.37128 11.8369,-0.13894 9.41514,-1.63087 17.52701,-6.82367 23.34472,-14.9441 2.4924,-3.47893 4.17517,-7.20701 5.3354,-11.82029 l 0.65123,-2.58932 0.14648,-62.7602 c 0.11058,-47.37048 0.21876,-63.06255 0.44112,-63.9932 1.04083,-4.35595 2.48042,-7.01632 5.3377,-9.86415 2.29007,-2.2825 3.988,-3.44846 6.47362,-4.44544 4.48034,-1.79707 11.05652,-1.81601 15.91086,-0.0458 2.61097,0.95213 4.32636,2.09641 6.73282,4.49123 1.89368,1.88454 2.4024,2.57305 3.37088,4.56221 2.25539,4.63232 2.04351,-2.57822 2.04351,69.54175 0,70.21018 0.0988,65.32324 -1.47855,73.11747 -2.43921,12.05294 -7.94218,23.21937 -16.16332,32.79806 -2.29708,2.67639 -7.79704,8.06597 -10.35048,10.14273 -11.36393,9.24259 -24.57403,14.70522 -39.26132,16.23536 -3.29894,0.34369 -12.93696,0.46916 -15.85118,0.20636 z"
         style="fill:#000000;stroke-width:0.24660194" />
      <path
         inkscape:connector-curvature="0"
         id="path870"
         d="m 141.93752,951.66165 c -7.59875,-1.49959 -12.99053,-6.48316 -14.96443,-13.83153 -0.45221,-1.68348 -0.55354,-2.72145 -0.56163,-5.7531 -0.0121,-4.50813 0.37138,-6.29595 2.13969,-9.97754 1.09397,-2.27767 1.50237,-2.8415 3.49033,-4.81863 3.80978,-3.78906 7.12749,-5.14224 13.64808,-5.56664 2.07797,-0.13526 4.5867,-0.45767 5.62265,-0.72264 4.80548,-1.22902 8.9992,-4.69148 11.23787,-9.27825 1.8275,-3.74433 1.75968,-2.77558 1.95699,-27.95766 0.16586,-21.17087 0.20764,-22.73157 0.67665,-25.2767 2.42476,-13.15801 7.53805,-22.79852 16.88353,-31.83199 4.93467,-4.76992 9.23835,-7.7906 15.1091,-10.6049 7.38311,-3.53925 14.34557,-5.17284 23.23062,-5.45056 5.32354,-0.16641 7.42045,0.0622 10.46992,1.14129 2.81127,0.99482 4.51615,2.10959 7.00042,4.57723 1.90293,1.89023 2.40316,2.56691 3.37253,4.56214 1.68984,3.47815 2.02694,5.07529 2.02992,9.61747 0.003,4.22962 -0.39826,6.23013 -1.86524,9.30392 -1.60849,3.37026 -5.06079,6.72893 -8.72749,8.49076 -2.72081,1.30733 -4.79143,1.8539 -9.24758,2.44106 -6.24324,0.82261 -9.99835,2.38217 -13.28249,5.51646 -1.75751,1.67734 -2.69238,2.93641 -3.72367,5.01509 -1.63396,3.2934 -1.55934,2.16396 -1.73899,26.32106 -0.17136,23.0394 -0.17829,23.1868 -1.3495,28.72913 -1.79275,8.48347 -5.9292,17.06409 -11.59078,24.04368 -2.49961,3.08152 -7.88406,8.26862 -10.9767,10.57434 -7.29476,5.43869 -15.01078,8.70915 -24.29029,10.29559 -3.38289,0.57833 -12.45944,0.85341 -14.54951,0.44092 z"
         style="fill:#000000;stroke-width:0.24660194" />
    </g>
    <rect
       style="fill:#000000;fill-opacity:1;stroke-width:0.26458332"
       id="rect931"
       width="338.66666"
       height="134.9375"
       x="0"
       y="162.06248" />
    <g
       id="g929"
       transform="matrix(1.1514377,0,0,1.1514377,-19.395542,-35.326442)"
       style="fill:#5c6bc0;fill-opacity:1">
      <path
         inkscape:connector-curvature="0"
         id="path886-4"
         d="m 240.98028,270.72149 c -1.347,-0.27108 -2.58471,-1.05117 -3.44718,-2.17268 -0.29635,-0.38536 -0.67208,-1.16184 -0.87149,-1.80103 l -0.20662,-0.66223 v -19.13131 c 0,-17.9472 0.008,-19.19052 0.13118,-20.08788 0.7309,-5.32999 2.84888,-9.52823 6.68352,-13.24799 3.49396,-3.38933 7.51841,-5.3344 12.50056,-6.04172 1.32304,-0.18783 5.23494,-0.19009 6.5488,-0.004 4.31236,0.61151 7.77072,2.06027 10.92693,4.57743 3.76783,3.00494 6.44945,6.94162 7.68726,11.28505 0.64418,2.2604 0.9389,4.76725 0.86187,7.33085 -0.10767,3.5836 -0.81682,6.57355 -2.25129,9.49207 -1.10839,2.25506 -2.44646,4.10327 -4.34417,6.00032 -3.88304,3.88172 -8.3711,5.97023 -13.9194,6.47736 -1.37656,0.12582 -3.42236,0.0546 -4.07514,-0.14196 -1.91784,-0.57735 -3.31232,-2.00125 -3.88084,-3.96272 -0.14434,-0.49798 -0.16617,-0.74251 -0.16617,-1.861 0,-1.48966 0.11147,-2.01702 0.64457,-3.04948 0.42727,-0.82749 1.40088,-1.80155 2.22714,-2.22817 0.90568,-0.46762 1.49817,-0.60572 2.94126,-0.68556 1.55935,-0.0863 2.51157,-0.23722 3.46394,-0.54904 1.59295,-0.52158 2.86858,-1.32704 4.19257,-2.64724 1.58178,-1.57729 2.48152,-3.20615 2.94968,-5.34002 0.10923,-0.49783 0.1364,-0.93654 0.13657,-2.20359 0,-1.38814 -0.0208,-1.67567 -0.1709,-2.34626 -0.50514,-2.25615 -1.69762,-4.21386 -3.49169,-5.73236 -1.53716,-1.30104 -3.1789,-2.07759 -5.09345,-2.40923 -0.87891,-0.15223 -2.66705,-0.17322 -3.53194,-0.0414 -2.29979,0.3504 -4.206,1.32131 -5.8792,2.9945 -1.61609,1.61609 -2.48594,3.26706 -2.96193,5.62167 -0.11686,0.57805 -0.12965,2.03885 -0.16883,19.27847 -0.0389,17.11039 -0.0525,18.68659 -0.16484,19.05881 -0.37822,1.25353 -0.8564,2.05678 -1.67179,2.80826 -0.84164,0.77573 -1.69955,1.20338 -2.86452,1.42791 -0.66084,0.12739 -2.08724,0.12425 -2.73446,-0.006 z"
         style="fill:#ffffff;fill-opacity:1;stroke-width:0.07358196" />
      <path
         inkscape:connector-curvature="0"
         id="path884-3"
         d="m 66.848563,259.59623 c -0.860808,-0.0571 -2.49899,-0.2656 -3.421559,-0.43563 -4.238276,-0.78116 -8.293943,-2.49997 -11.846702,-5.02068 -5.686284,-4.03448 -9.843842,-10.07705 -11.576306,-16.82493 -0.676105,-2.63342 -0.894231,-4.44922 -0.892735,-7.43177 0.0015,-2.44406 0.08232,-3.42768 0.445904,-5.40828 2.221284,-12.10041 11.803406,-21.66911 23.907837,-23.87434 0.565919,-0.10309 1.442836,-0.2441 1.948714,-0.31336 0.862084,-0.11801 5.570991,-0.12726 75.077194,-0.14739 l 74.15741,-0.0214 0.21555,0.21555 c 0.28275,0.28274 0.29877,0.71058 0.038,1.01378 l -0.17758,0.20645 -73.68032,0.0402 c -68.56482,0.0374 -73.748903,0.0489 -74.668196,0.16448 -4.717385,0.59327 -8.808023,2.01346 -12.551203,4.35752 -3.880932,2.43031 -6.624759,5.22952 -9.051707,9.2344 -3.00597,4.96036 -4.587061,11.37705 -4.088493,16.59273 0.595687,6.23168 3.136951,12.11875 7.258941,16.81601 2.380887,2.71316 5.883331,5.21869 9.582618,6.85505 2.741375,1.21264 5.589756,1.98285 8.849844,2.39306 0.920314,0.1158 6.616186,0.12705 83.277286,0.16447 l 82.2894,0.0402 0.17759,0.20646 c 0.2606,0.30296 0.24475,0.73104 -0.0375,1.0133 l -0.21508,0.21509 -82.32548,-0.0133 c -45.27903,-0.007 -82.49105,-0.0242 -82.693401,-0.0376 z"
         style="fill:#ffffff;fill-opacity:1;stroke-width:0.07358196" />
      <path
         inkscape:connector-curvature="0"
         id="path882-7"
         d="m 253.19569,259.4385 c -0.30564,-0.30565 -0.31195,-0.74245 -0.015,-1.0394 l 0.20655,-0.20654 3.52774,-0.0395 c 3.74612,-0.042 4.52889,-0.0967 6.5759,-0.46007 6.29211,-1.11689 12.46593,-4.48624 16.37381,-8.93598 4.11583,-4.68655 6.66195,-10.58529 7.25729,-16.81348 0.49986,-5.22902 -1.07817,-11.61907 -4.10349,-16.61678 -1.74634,-2.88484 -3.76675,-5.25259 -6.03522,-7.07272 -4.54203,-3.64435 -9.61713,-5.76289 -15.55268,-6.49232 -0.86658,-0.10648 -2.46361,-0.12668 -13.00654,-0.16447 l -12.01864,-0.043 -0.17756,-0.20646 c -0.26166,-0.30423 -0.24479,-0.731 0.0401,-1.01592 l 0.2177,-0.21769 12.49358,0.0258 c 13.64533,0.0282 12.85907,0.004 15.36208,0.46065 6.22619,1.13432 12.17151,4.38769 16.38791,8.96775 4.43904,4.82188 7.03012,10.43403 7.83349,16.9669 0.18664,1.5178 0.18727,5.19541 0.001,6.69596 -0.47303,3.81344 -1.44915,7.00188 -3.16337,10.33303 -2.8445,5.5276 -7.30095,9.95924 -12.89036,12.81862 -3.23007,1.65241 -6.36607,2.60918 -10.11752,3.0868 -0.79465,0.10117 -1.79169,0.13286 -4.98437,0.15843 l -3.99102,0.032 -0.22155,-0.22156 z"
         style="fill:#ffffff;fill-opacity:1;stroke-width:0.07358196" />
      <path
         inkscape:connector-curvature="0"
         id="path880-7"
         d="m 66.848563,252.75452 c -5.816324,-0.48882 -10.815245,-2.93718 -14.697096,-7.19834 -3.236653,-3.55291 -5.038678,-7.45082 -5.697915,-12.32498 -0.190225,-1.40644 -0.190976,-4.91176 -0.0015,-6.32805 0.715242,-5.34225 2.831534,-9.54994 6.681698,-13.28478 3.48416,-3.37981 7.563759,-5.35458 12.463781,-6.03324 1.175402,-0.16279 4.299417,-0.22723 5.535786,-0.11419 5.672881,0.51869 10.308965,2.7187 14.220978,6.74843 2.449712,2.52343 4.100663,5.20124 5.159437,8.36847 0.458381,1.37122 0.767584,2.77392 1.032354,4.68322 0.114572,0.82622 0.179267,19.7151 0.07034,20.53246 -0.09979,0.74865 -0.38674,1.62471 -0.722049,2.20437 -0.339519,0.58694 -1.380862,1.63876 -1.961337,1.98106 -0.557287,0.32864 -1.414512,0.62856 -2.123369,0.7429 -0.815549,0.13157 -2.367046,0.0577 -3.072154,-0.14629 -1.707496,-0.49395 -3.138475,-1.82923 -3.72378,-3.47472 -0.360379,-1.01315 -0.346399,-0.62637 -0.397093,-10.98644 -0.05217,-10.66314 -0.01861,-9.88835 -0.494496,-11.4038 -0.646593,-2.05896 -2.221365,-4.1197 -4.192478,-5.48626 -1.150056,-0.79734 -2.657243,-1.40135 -4.144593,-1.66097 -0.840604,-0.14674 -2.644745,-0.16506 -3.495148,-0.0355 -2.29979,0.35042 -4.205997,1.32132 -5.879194,2.99451 -2.098672,2.09867 -3.08018,4.5002 -3.079465,7.5348 2.99e-4,1.38335 0.138627,2.27393 0.54279,3.49514 1.029305,3.11014 3.669592,5.73332 6.760278,6.71647 0.92316,0.29365 1.870156,0.44523 3.127232,0.50056 1.423574,0.0627 2.252555,0.23806 3.082244,0.65216 1.441041,0.71921 2.47322,1.95871 2.915629,3.50124 0.242087,0.84407 0.280158,2.31778 0.08428,3.26247 -0.485624,2.34202 -2.22016,4.05745 -4.554213,4.50402 -0.50296,0.0962 -2.560504,0.1293 -3.441069,0.0553 z"
         style="fill:#ffffff;fill-opacity:1;stroke-width:0.07358196" />
      <path
         inkscape:connector-curvature="0"
         id="path878-2"
         d="m 119.09509,207.43448 c -1.30758,7.3e-4 -2.61618,0.0482 -3.2777,0.14217 -4.98216,0.70732 -9.00668,2.65246 -12.50065,6.04178 -3.850175,3.73483 -5.966452,7.94248 -6.681694,13.28474 -0.189568,1.4163 -0.188831,4.92152 0.0015,6.32796 0.659237,4.87416 2.461277,8.77212 5.697924,12.32504 3.87962,4.2587 8.88402,6.70982 14.697,7.19839 h 1.6e-4 c 0.8787,0.0738 3.78194,0.037 4.69151,-0.0595 5.3792,-0.57088 9.72544,-2.63936 13.52373,-6.43637 1.8977,-1.89706 3.23572,-3.74539 4.34411,-6.00046 1.43448,-2.91851 2.14356,-5.90842 2.25123,-9.49202 0.077,-2.56361 -0.21761,-5.07044 -0.86178,-7.33085 -1.23782,-4.34342 -3.91952,-8.28005 -7.68735,-11.28499 -3.15621,-2.51717 -6.61444,-3.96589 -10.9268,-4.5774 -0.65693,-0.0932 -1.96349,-0.13923 -3.27107,-0.13847 z m 0.13863,12.01757 c 0.665,0.008 1.33177,0.0511 1.77122,0.12721 1.91456,0.33163 3.55619,1.10824 5.09333,2.40928 1.79408,1.5185 2.98659,3.47618 3.49172,5.73231 0.15015,0.67061 0.17101,0.95824 0.17101,2.34637 0,1.26705 -0.0274,1.70576 -0.13661,2.20359 -0.46816,2.13387 -1.36795,3.76261 -2.94973,5.3399 -1.67799,1.6732 -3.52453,2.65801 -5.63303,3.004 -3.87036,0.63508 -7.3991,-0.60207 -9.91004,-3.47415 -1.77961,-2.03556 -2.61654,-4.29755 -2.61729,-7.07334 -6e-4,-3.03459 0.98074,-5.43617 3.07941,-7.53484 1.6732,-1.67319 3.57948,-2.64404 5.87927,-2.99444 0.43244,-0.0659 1.09573,-0.0937 1.76074,-0.0859 z"
         style="fill:#ffffff;fill-opacity:1;stroke-width:0.07358196" />
      <path
         inkscape:connector-curvature="0"
         id="path874-7"
         d="m 206.87504,252.60556 c -4.63787,-0.41825 -8.54971,-1.96273 -12.06842,-4.76488 -1.51713,-1.20817 -3.52692,-3.37174 -4.7117,-5.07221 -2.10255,-3.01769 -3.39508,-6.75702 -3.71777,-10.75565 -0.10995,-1.36253 -0.0521,-4.00877 0.11495,-5.25683 0.6398,-4.78045 2.46744,-8.71851 5.68585,-12.25141 3.14207,-3.4491 7.12939,-5.77574 11.53307,-6.72967 1.9955,-0.43227 5.13651,-0.65174 6.41615,-0.44831 2.41344,0.38365 4.24497,2.13634 4.74315,4.53895 0.19588,0.94469 0.15781,2.41841 -0.0843,3.26247 -0.44242,1.54254 -1.47459,2.78202 -2.91563,3.50124 -0.82969,0.4141 -1.65868,0.58949 -3.08225,0.65215 -1.25707,0.0553 -2.20406,0.20692 -3.12723,0.50057 -3.09069,0.98315 -5.73097,3.60632 -6.76027,6.71647 -0.40416,1.22121 -0.54247,2.11178 -0.5428,3.49514 -7.3e-4,3.03459 0.9808,5.43613 3.07947,7.53479 1.67319,1.6732 3.57941,2.64411 5.8792,2.99451 0.86488,0.13177 2.65303,0.11079 3.53193,-0.0414 2.80932,-0.48662 5.22978,-2.03607 6.96568,-4.45908 0.74369,-1.03805 1.2458,-2.15045 1.592,-3.52697 l 0.19431,-0.77261 0.0437,-18.72662 c 0.033,-14.13457 0.0653,-18.81683 0.13161,-19.09451 0.31058,-1.29975 0.74012,-2.09356 1.59269,-2.94331 0.68332,-0.68106 1.18995,-1.02896 1.93162,-1.32644 1.33686,-0.53622 3.29909,-0.54187 4.74754,-0.0136 0.77907,0.2841 1.29092,0.62554 2.00897,1.34011 0.56504,0.56232 0.71683,0.76776 1.00581,1.36129 0.67297,1.38221 0.60975,-0.7693 0.60975,20.75012 0,20.94956 0.0295,19.49138 -0.44117,21.81705 -0.72783,3.59639 -2.36982,6.92828 -4.82288,9.7864 -0.68541,0.79859 -2.32651,2.40675 -3.08841,3.02642 -3.39081,2.75784 -7.33249,4.3878 -11.71494,4.84436 -0.98434,0.10256 -3.86017,0.14 -4.72973,0.0616 z"
         style="fill:#ffffff;fill-opacity:1;stroke-width:0.07358196" />
      <path
         inkscape:connector-curvature="0"
         id="path870-2"
         d="m 151.39424,252.50364 c -2.26734,-0.44745 -3.87616,-1.93447 -4.46514,-4.12711 -0.13492,-0.50231 -0.16516,-0.81203 -0.16758,-1.71663 -0.004,-1.34515 0.11082,-1.8786 0.63845,-2.97713 0.32642,-0.67962 0.44829,-0.84785 1.04146,-1.4378 1.13677,-1.13059 2.12672,-1.53436 4.07236,-1.66099 0.62004,-0.0403 1.3686,-0.13656 1.67771,-0.21563 1.43387,-0.36672 2.68521,-1.39985 3.35319,-2.76847 0.5453,-1.11725 0.52507,-0.82819 0.58394,-8.34211 0.0495,-6.31704 0.0619,-6.78272 0.2019,-7.54215 0.72351,-3.92613 2.24923,-6.80271 5.03777,-9.49814 1.47242,-1.42326 2.75657,-2.32459 4.50831,-3.16433 2.20299,-1.05605 4.28048,-1.54349 6.93162,-1.62636 1.58846,-0.0497 2.21415,0.0185 3.12406,0.34054 0.83884,0.29684 1.34755,0.62947 2.08882,1.36578 0.5678,0.564 0.71706,0.76592 1.0063,1.36126 0.50422,1.03782 0.6048,1.51438 0.60569,2.8697 7.3e-4,1.26205 -0.11883,1.85897 -0.55655,2.77614 -0.47995,1.00563 -1.51006,2.0078 -2.60414,2.5335 -0.81185,0.39009 -1.42969,0.55317 -2.75933,0.72837 -1.86288,0.24545 -2.98334,0.7108 -3.96328,1.64602 -0.52441,0.50049 -0.80336,0.87617 -1.11108,1.49642 -0.48755,0.9827 -0.46528,0.64569 -0.51888,7.85377 -0.0512,6.87458 -0.0532,6.91856 -0.40267,8.5723 -0.53492,2.53133 -1.76918,5.09164 -3.4585,7.17424 -0.74584,0.91948 -2.35248,2.46722 -3.27526,3.15521 -2.17665,1.62281 -4.47898,2.59867 -7.24782,3.07203 -1.00941,0.17257 -3.7177,0.25465 -4.34135,0.13157 z"
         style="fill:#ffffff;fill-opacity:1;stroke-width:0.07358196" />
    </g>
  </g>
</svg>
